#!OML:ASF F:\VICON\USERDATA\INSTALL\rory3\rory3.ASF
:FULLY-SPECIFIED
:DEGREES
243
root 0.0930063 16.9409 -1.61542 10.8409 -1.89228 -3.29998
lowerback -3.12462 1.93571 5.3989
upperback -2.51162 2.46253 0.373215
thorax -0.626375 1.16755 -2.57225
lowerneck -18.0851 0.98365 -0.559013
upperneck 40.148 2.93112 -2.48957
head 18.066 0.745099 -0.463832
rclavicle -7.06307e-015 1.28216e-014
rhumerus -33.3423 -6.53938 -76.3337
rradius 37.1355
rwrist -16.5871
rhand -5.70603 12.4694
rfingers 7.12502
rthumb 20.1149 -16.5092
lclavicle -7.06307e-015 1.28216e-014
lhumerus -66.6936 36.1863 39.0271
lradius 20.155
lwrist -19.248
lhand 4.17337 18.1318
lfingers 7.12502
lthumb 29.5812 45.7941
rfemur -3.00023 17.0924 29.1783
rtibia 15.8114
rfoot -14.857 -21.9546
rtoes 3.36533
lfemur -38.3402 -2.49936 -16.6943
ltibia 25.7131
lfoot -20.3479 18.7099
ltoes -9.04701
244
root 0.0953194 16.9399 -1.46848 10.8749 -2.00841 -3.6206
lowerback -2.85344 1.94898 5.65252
upperback -2.79143 2.50384 0.428089
thorax -1.05658 1.16841 -2.67161
lowerneck -16.9517 0.719947 -1.30414
upperneck 39.477 2.4808 -1.8777
head 17.3492 0.556617 -0.137133
rclavicle -1.7375e-014 -1.49089e-015
rhumerus -33.6082 -6.45527 -76.3382
rradius 36.9205
rwrist -16.5176
rhand -5.74836 12.4383
rfingers 7.12502
rthumb 20.0742 -16.5446
lclavicle -1.7375e-014 -1.49089e-015
lhumerus -66.8064 35.5448 39.1818
lradius 20.438
lwrist -18.5508
lhand 3.90801 18.8856
lfingers 7.12502
lthumb 29.3279 46.5925
rfemur -1.58422 17.3486 29.6454
rtibia 14.3405
rfoot -14.1699 -21.9628
rtoes 2.53375
lfemur -38.3345 -3.11292 -15.7293
ltibia 24.0547
lfoot -20.6753 18.9131
ltoes -7.68029
245
root 0.102264 16.9371 -1.32725 10.9655 -2.20694 -3.89666
lowerback -2.71086 1.9667 5.87573
upperback -3.0604 2.54446 0.467682
thorax -1.40464 1.17033 -2.76517
lowerneck -16.2546 0.731155 -1.49936
upperneck 39.1705 2.46164 -1.70427
head 16.9931 0.554338 -0.0299242
rclavicle -1.43933e-014 -8.54774e-015
rhumerus -33.9941 -5.97015 -76.465
rradius 37.0216
rwrist -16.7337
rhand -5.79245 12.3982
rfingers 7.12502
rthumb 20.0319 -16.5892
lclavicle -1.43933e-014 -8.54774e-015
lhumerus -66.7472 34.938 39.5535
lradius 20.8221
lwrist -17.3547
lhand 3.70058 19.6767
lfingers 7.12502
lthumb 29.1298 47.4181
rfemur -0.308075 17.4648 29.967
rtibia 12.8527
rfoot -13.5593 -21.7111
rtoes 2.64969
lfemur -38.4548 -3.8532 -14.7657
ltibia 22.7458
lfoot -20.7692 19.5352
ltoes -8.21508
246
root 0.1283 16.9452 -1.14564 10.9809 -2.39846 -3.559
lowerback -3.41435 2.04141 5.8042
upperback -2.70835 2.58036 0.197504
thorax -0.634163 1.21587 -2.96891
lowerneck -16.9269 0.685387 -1.2492
upperneck 39.1136 2.37386 -1.84643
head 17.14 0.529378 -0.151772
rclavicle 2.47549e-015 1.31943e-014
rhumerus -33.4158 -6.28118 -76.5989
rradius 36.8598
rwrist -16.4734
rhand -5.83272 12.5336
rfingers 7.12502
rthumb 19.9932 -16.4578
lclavicle 2.47549e-015 1.31943e-014
lhumerus -66.3508 35.4554 39.173
lradius 20.8027
lwrist -17.4411
lhand 3.58031 19.5132
lfingers 7.12502
lthumb 29.0149 47.2744
rfemur 1.19101 16.5644 29.4259
rtibia 11.2157
rfoot -12.8609 -20.747
rtoes 1.39716
lfemur -38.3857 -5.06687 -14.5079
ltibia 21.8554
lfoot -21.0005 20.5403
ltoes -10.8892
247
root 0.136353 16.9372 -1.01039 11.0242 -2.54234 -4.08502
lowerback -3.1631 2.11311 6.29861
upperback -2.87189 2.68938 0.287188
thorax -0.918189 1.25218 -3.16162
lowerneck -16.7513 0.650523 -1.20956
upperneck 39.0126 2.32663 -1.92032
head 17.0415 0.507986 -0.201467
rclavicle -2.30885e-014 -3.50358e-015
rhumerus -33.4877 -6.32181 -76.5656
rradius 36.6303
rwrist -16.3671
rhand -5.80314 12.2283
rfingers 7.12502
rthumb 20.0216 -16.7602
lclavicle -2.30885e-014 -3.50358e-015
lhumerus -66.7141 35.4815 38.4568
lradius 20.8176
lwrist -17.6816
lhand 3.34935 19.0426
lfingers 7.12502
lthumb 28.7943 46.8415
rfemur 2.5426 16.5945 30.0078
rtibia 9.5403
rfoot -11.8729 -20.5584
rtoes 0.20597
lfemur -38.6953 -6.4115 -12.9368
ltibia 21.3073
lfoot -21.735 21.6102
ltoes -11.7191
248
root 0.149474 16.9265 -0.854889 10.9633 -2.51099 -4.40891
lowerback -2.98672 2.09568 6.65259
upperback -3.03339 2.6799 0.330404
thorax -1.1736 1.23034 -3.32525
lowerneck -16.6169 0.652168 -1.30192
upperneck 39.0174 2.31591 -1.8158
head 17.0061 0.505297 -0.140769
rclavicle -2.24157e-015 -7.02269e-015
rhumerus -33.5517 -6.22752 -76.5721
rradius 36.029
rwrist -16.3741
rhand -5.90696 12.1781
rfingers 7.12502
rthumb 19.9218 -16.8208
lclavicle -2.24157e-015 -7.02269e-015
lhumerus -66.538 34.837 38.9398
lradius 21.2457
lwrist -16.7098
lhand 3.23702 19.8
lfingers 7.12502
lthumb 28.687 47.6171
rfemur 4.28839 16.3974 30.3988
rtibia 7.53175
rfoot -10.9708 -20.191
rtoes -1.94919
lfemur -38.9545 -7.85718 -11.6769
ltibia 21.099
lfoot -23.0827 22.1669
ltoes -11.1541
